<?xml version="1.0" encoding="UTF-8"?>
<svg version="1.1" xmlns="http://www.w3.org/2000/svg" width="31.88" height="32">
<path d="M0 0 C0 0.66 0 1.32 0 2 C0.57234375 2.2578125 1.1446875 2.515625 1.734375 2.78125 C4.21128995 4.11365942 6.1341166 5.65056118 8.25 7.5 C8.95640625 8.1084375 9.6628125 8.716875 10.390625 9.34375 C12 11 12 11 12 13 C12.639375 13.268125 13.27875 13.53625 13.9375 13.8125 C16 15 16 15 17 18 C19.50447516 19.21869929 19.50447516 19.21869929 22 20 C22 20.66 22 21.32 22 22 C23.485 22.495 23.485 22.495 25 23 C25 23.66 25 24.32 25 25 C25.66 25 26.32 25 27 25 C27 25.66 27 26.32 27 27 C27.57234375 27.24363281 28.1446875 27.48726562 28.734375 27.73828125 C31.40433538 29.22517298 33.13829007 30.98083908 35.25 33.1875 C38.82320195 36.8612722 42.50992892 40.24029876 46.46875 43.4921875 C48 45 48 45 49 48 C49.66 48 50.32 48 51 48 C51 48.66 51 49.32 51 50 C51.5671875 50.23589844 52.134375 50.47179688 52.71875 50.71484375 C60.36513844 55.02248381 65.04145838 63.02480084 68 71 C69.32 68.36 70.64 65.72 72 63 C78.36378702 64.59094676 80.62578233 69.62335643 84 75 C90.97394768 87.77776992 93.57112628 99.94739281 93.5 114.4375 C93.49468262 116.39852661 93.49468262 116.39852661 93.48925781 118.39916992 C93.17866967 136.76100583 88.23808622 151.81804493 80 168 C79.34 168 78.68 168 78 168 C77.91621094 168.55300781 77.83242187 169.10601562 77.74609375 169.67578125 C76.75554872 172.76151053 75.11759594 174.68454484 73.0625 177.1875 C71.99708984 178.50814453 71.99708984 178.50814453 70.91015625 179.85546875 C63.63801398 188.00838152 55.60245992 193.82105659 46 198.9375 C44.9063916 199.53449707 43.8127832 200.13149414 42.68603516 200.74658203 C40.48650285 201.94700038 38.28423929 203.14242954 36.07910156 204.33251953 C32.56309976 206.23660234 29.07178849 208.1817372 25.58447266 210.13769531 C22.74918906 211.72545413 19.90316759 213.29335413 17.05664062 214.86083984 C14.93213666 216.03758907 12.8177446 217.23137714 10.703125 218.42578125 C9.34409213 219.18030407 7.98473226 219.93423829 6.625 220.6875 C6.01188965 221.03925293 5.3987793 221.39100586 4.76708984 221.75341797 C0.5120982 224.0823015 0.5120982 224.0823015 -1.96875 223.68359375 C-5.33622385 222.55030928 -8.46234485 220.91467092 -11.625 219.3125 C-12.34212158 218.95164307 -13.05924316 218.59078613 -13.7980957 218.21899414 C-18.49441307 215.83088369 -23.03309854 213.27359099 -27.51171875 210.49609375 C-30.4561492 208.72573761 -33.46695469 207.11362248 -36.5 205.5 C-41.28409299 202.95035985 -45.96462757 200.29023716 -50.5859375 197.45703125 C-52.49282642 196.30610962 -54.43431915 195.21253066 -56.38671875 194.140625 C-60.03066811 192.06137848 -63.23864182 189.6440016 -66.4375 186.9375 C-67.27945923 186.22557495 -67.27945923 186.22557495 -68.13842773 185.49926758 C-73.34082701 180.95231225 -77.25481477 175.7959131 -81 170 C-81.65742187 169.07058594 -82.31484375 168.14117187 -82.9921875 167.18359375 C-85.29298098 163.53544844 -86.95071841 159.86391168 -88.5625 155.875 C-88.86623535 155.12871338 -89.1699707 154.38242676 -89.48291016 153.61352539 C-94.52749572 140.92302691 -96.1790288 128.69587024 -96.1875 115.125 C-96.19974609 114.10019531 -96.21199219 113.07539062 -96.22460938 112.01953125 C-96.25681456 95.12254672 -91.19548811 77.11734347 -79.0625 64.8125 C-78.381875 64.214375 -77.70125 63.61625 -77 63 C-75.515 63.495 -75.515 63.495 -74 64 C-72.3125 67.5625 -72.3125 67.5625 -71 71 C-70.75765625 70.49210937 -70.5153125 69.98421875 -70.265625 69.4609375 C-64.55065082 57.72325976 -64.55065082 57.72325976 -60 54 C-59.34 54 -58.68 54 -58 54 C-58 53.34 -58 52.68 -58 52 C-57.34 52 -56.68 52 -56 52 C-56 51.34 -56 50.68 -56 50 C-51.69767442 45.23255814 -51.69767442 45.23255814 -48 44 C-48 43.34 -48 42.68 -48 42 C-47.34 42 -46.68 42 -46 42 C-46 41.34 -46 40.68 -46 40 C-44.54223633 38.54589844 -44.54223633 38.54589844 -42.51953125 36.859375 C-38.11665884 33.11513893 -33.89306092 29.21331426 -29.6875 25.25 C-28.98560547 24.59128906 -28.28371094 23.93257812 -27.56054688 23.25390625 C-23.90622786 19.8500658 -23.90622786 19.8500658 -20.40551758 16.29199219 C-19 15 -19 15 -17 15 C-17 14.34 -17 13.68 -17 13 C-11.52380952 8 -11.52380952 8 -9 8 C-8.773125 7.4225 -8.54625 6.845 -8.3125 6.25 C-6.47530093 3.10051589 -3.84497849 0 0 0 Z M-2 10 C-2 10.66 -2 11.32 -2 12 C-2.9590625 12.4021875 -2.9590625 12.4021875 -3.9375 12.8125 C-6.33131686 13.88667752 -6.33131686 13.88667752 -7 17 C-7.7425 17.28875 -8.485 17.5775 -9.25 17.875 C-12.7055128 19.28861887 -14.55229193 21.21233247 -17 24 C-17.33 24.99 -17.66 25.98 -18 27 C-19.30783414 27.71539645 -20.64592439 28.37654073 -22 29 C-23.28187437 29.95880034 -24.5331293 30.95993957 -25.75 32 C-26.36359375 32.515625 -26.9771875 33.03125 -27.609375 33.5625 C-29.23176376 34.90623252 -29.23176376 34.90623252 -29 37 C-29.53625 37.226875 -30.0725 37.45375 -30.625 37.6875 C-36.27265728 40.80857376 -39.92856655 45.09340072 -44 50 C-45.66666667 51.33333333 -47.33333333 52.66666667 -49 54 C-49 54.66 -49 55.32 -49 56 C-49.66 56 -50.32 56 -51 56 C-52.70682481 57.64873805 -52.70682481 57.64873805 -54.4375 59.75 C-55.03433594 60.44609375 -55.63117188 61.1421875 -56.24609375 61.859375 C-56.82488281 62.56578125 -57.40367188 63.2721875 -58 64 C-58.76957031 64.88171875 -58.76957031 64.88171875 -59.5546875 65.78125 C-61.58078841 68.8915887 -62.60524558 72.23185573 -63.6875 75.75 C-63.91244141 76.42804688 -64.13738281 77.10609375 -64.36914062 77.8046875 C-65.89732638 82.69116595 -66.21217885 86.88476926 -66 92 C-62.33003787 86.49505681 -59.94148956 80.30984107 -58 74 C-57.34 74 -56.68 74 -56 74 C-54.21346528 71.85857845 -54.21346528 71.85857845 -52.4375 69.1875 C-51.81746094 68.29417969 -51.19742188 67.40085938 -50.55859375 66.48046875 C-48.87399087 64.01693193 -48.87399087 64.01693193 -48 61 C-47.34 61 -46.68 61 -46 61 C-46 60.34 -46 59.68 -46 59 C-45.4225 58.773125 -44.845 58.54625 -44.25 58.3125 C-41.84482485 57.09494888 -41.84482485 57.09494888 -40.1875 54.6875 C-37.91330476 51.89348871 -35.6895984 50.27002197 -32.75 48.26171875 C-30.20441264 46.42639572 -28.0844773 44.33714122 -26 42 C-26 41.34 -26 40.68 -26 40 C-25.319375 39.814375 -24.63875 39.62875 -23.9375 39.4375 C-20.38343592 37.69827715 -18.23469508 35.42103843 -15.55078125 32.55859375 C-14 31 -14 31 -12 30 C-12 29.34 -12 28.68 -12 28 C-11.360625 27.731875 -10.72125 27.46375 -10.0625 27.1875 C-7.66868314 26.11332248 -7.66868314 26.11332248 -7 23 C-6.01 22.67 -5.02 22.34 -4 22 C-4 21.34 -4 20.68 -4 20 C-1.21895249 20.08179551 0.49644002 20.49907646 2.4921875 22.484375 C3.50998791 23.71839208 4.51761888 24.96085766 5.515625 26.2109375 C7.43280721 28.52164658 9.53856478 30.29066998 12 32 C12.66 32 13.32 32 14 32 C14.226875 32.5775 14.45375 33.155 14.6875 33.75 C16.34848222 36.59739809 18.31524561 38.12067193 21 40 C21.66 40 22.32 40 23 40 C23 40.66 23 41.32 23 42 C24.54775998 43.60480279 24.54775998 43.60480279 26.5625 45.25 C27.29210937 45.87132812 28.02171875 46.49265625 28.7734375 47.1328125 C29.50820312 47.74898437 30.24296875 48.36515625 31 49 C41.36104718 57.75402762 41.36104718 57.75402762 44.6875 62.3125 C45.120625 62.869375 45.55375 63.42625 46 64 C46.66 64 47.32 64 48 64 C48.26167969 64.73089844 48.52335937 65.46179688 48.79296875 66.21484375 C50.0184413 69.04255227 51.44800478 71.11922577 53.3125 73.5625 C57.23343003 79.00094479 59.66714878 84.74322852 62 91 C62.33 91 62.66 91 63 91 C63.29672163 81.77789189 61.74282125 71.41934514 55.4375 64.3125 C54.29463063 63.20526576 53.14892863 62.10094553 52 61 C51.47535156 60.27167969 50.95070313 59.54335937 50.41015625 58.79296875 C49.94480469 58.20128906 49.47945313 57.60960937 49 57 C48.34 57 47.68 57 47 57 C46.7421875 56.40316406 46.484375 55.80632812 46.21875 55.19140625 C44.89941578 52.81914183 43.6125068 51.61586875 41.5 49.9375 C39.06335088 47.99127814 37.77737879 46.66606818 36 44 C35.34 44 34.68 44 34 44 C34 43.34 34 42.68 34 42 C32.48014386 40.44305125 32.48014386 40.44305125 30.4921875 38.8359375 C26.24359903 35.2228616 22.17580272 31.45700169 18.125 27.625 C8.76432717 17.81912697 8.76432717 17.81912697 -2 10 Z M-2 32 C-3.89590761 32.89741131 -3.89590761 32.89741131 -5.6875 34.3125 C-6.31011719 34.76238281 -6.93273437 35.21226563 -7.57421875 35.67578125 C-8.04472656 36.11277344 -8.51523438 36.54976562 -9 37 C-9 37.66 -9 38.32 -9 39 C-9.73605469 39.2475 -10.47210938 39.495 -11.23046875 39.75 C-14.26353941 41.11894585 -15.99790209 42.62873585 -18.3125 45 C-19.00988281 45.70125 -19.70726563 46.4025 -20.42578125 47.125 C-22.21433499 48.84725038 -22.21433499 48.84725038 -22 51 C-22.60739014 51.26393555 -23.21478027 51.52787109 -23.84057617 51.79980469 C-26.13101537 53.07281759 -27.07494771 54.07253507 -28.55078125 56.203125 C-28.99856934 56.84644775 -29.44635742 57.48977051 -29.90771484 58.15258789 C-30.6030835 59.19080688 -30.6030835 59.19080688 -31.3125 60.25 C-31.7967041 60.96728271 -32.2809082 61.68456543 -32.77978516 62.42358398 C-43.30487694 78.30935771 -49.97946969 94.84521747 -50 114 C-50.01160156 114.90363281 -50.02320313 115.80726562 -50.03515625 116.73828125 C-49.53074573 129.06607428 -42.36135432 139.61527162 -35 149 C-34.18193668 150.11276524 -33.36828343 151.22878329 -32.55859375 152.34765625 C-29.3794228 156.75083148 -29.3794228 156.75083148 -26 161 C-25.34 161 -24.68 161 -24 161 C-23.731875 161.5775 -23.46375 162.155 -23.1875 162.75 C-21.97070811 165.05550043 -20.69666121 167.02056192 -19 169 C-18.34 169 -17.68 169 -17 169 C-16.5978125 169.9590625 -16.5978125 169.9590625 -16.1875 170.9375 C-15.11332248 173.33131686 -15.11332248 173.33131686 -12 174 C-12 174.66 -12 175.32 -12 176 C-11.34 176 -10.68 176 -10 176 C-9.7525 176.5775 -9.505 177.155 -9.25 177.75 C-7.81700012 180.32939979 -6.21575324 182.06121592 -4 184 C-3.34 184 -2.68 184 -2 184 C-2 184.99 -2 185.98 -2 187 C-3.20398438 186.62746094 -4.40796875 186.25492188 -5.6484375 185.87109375 C-7.22384205 185.39284594 -8.79936931 184.91500223 -10.375 184.4375 C-11.56609375 184.0672168 -11.56609375 184.0672168 -12.78125 183.68945312 C-13.54179687 183.46064453 -14.30234375 183.23183594 -15.0859375 182.99609375 C-15.7876709 182.78138428 -16.4894043 182.5666748 -17.21240234 182.34545898 C-19.09449809 181.79358223 -19.09449809 181.79358223 -21 183 C-19.68 185.64 -18.36 188.28 -17 191 C-16.34 191 -15.68 191 -15 191 C-14.73445313 191.70511719 -14.46890625 192.41023437 -14.1953125 193.13671875 C-12.93501033 196.15567786 -11.46042006 198.95185076 -9.875 201.8125 C-9.33617187 202.78832031 -8.79734375 203.76414063 -8.2421875 204.76953125 C-7.83226562 205.50558594 -7.42234375 206.24164063 -7 207 C-7.69867188 206.4946875 -8.39734375 205.989375 -9.1171875 205.46875 C-10.02726562 204.8190625 -10.93734375 204.169375 -11.875 203.5 C-12.77992188 202.8503125 -13.68484375 202.200625 -14.6171875 201.53125 C-16.80835508 199.81979394 -16.80835508 199.81979394 -19 200 C-19 199.34 -19 198.68 -19 198 C-20.58037911 196.75149094 -20.58037911 196.75149094 -22.6875 195.5 C-26.86938374 192.80927924 -30.82254316 189.91792477 -34.75 186.875 C-35.56343872 186.24561523 -35.56343872 186.24561523 -36.39331055 185.60351562 C-38.8829065 183.66898841 -41.3433264 181.71389467 -43.765625 179.6953125 C-45.79809317 177.79851752 -45.79809317 177.79851752 -48 178 C-48 177.34 -48 176.68 -48 176 C-49.62092592 174.39940707 -49.62092592 174.39940707 -51.6875 172.75 C-54.35349133 170.49924272 -56.71010091 168.29950455 -58.875 165.5625 C-59.57625 164.716875 -60.2775 163.87125 -61 163 C-61.66 163 -62.32 163 -63 163 C-63.26167969 162.26652344 -63.52335937 161.53304687 -63.79296875 160.77734375 C-65.01508072 157.96529969 -66.43068455 155.97005546 -68.3125 153.5625 C-75.50405596 143.53926887 -79.11743891 130.47919186 -79.4140625 118.21875 C-79.43342865 117.51979614 -79.4527948 116.82084229 -79.4727478 116.10070801 C-79.5318215 113.90059036 -79.57863473 111.70041828 -79.625 109.5 C-79.66324657 107.99477071 -79.70230201 106.48956175 -79.7421875 104.984375 C-79.83746125 101.3231043 -79.92175356 97.66167878 -80 94 C-79.34 94 -78.68 94 -78 94 C-78.04125 94.93972656 -78.0825 95.87945312 -78.125 96.84765625 C-78.08018527 119.17099259 -66.67814035 140.4058383 -51.375 155.9375 C-47.81437845 159.482459 -44.23577414 162.30194706 -40 165 C-39.24976563 165.515625 -38.49953125 166.03125 -37.7265625 166.5625 C-32.97526807 169.81245604 -28.27924905 172.68453989 -23 175 C-22.34 174.67 -21.68 174.34 -21 174 C-22.57826815 172.53618641 -24.16282229 171.07914837 -25.75 169.625 C-26.63171875 168.81289062 -27.5134375 168.00078125 -28.421875 167.1640625 C-30.59802521 165.3374152 -32.40820119 164.10212006 -35 163 C-35 162.34 -35 161.68 -35 161 C-36.6436814 159.31066078 -38.3142876 157.64740076 -40 156 C-40.721875 155.071875 -41.44375 154.14375 -42.1875 153.1875 C-42.785625 152.465625 -43.38375 151.74375 -44 151 C-44.66 151 -45.32 151 -46 151 C-46 150.34 -46 149.68 -46 149 C-46.66 149 -47.32 149 -48 149 C-48.2371875 148.484375 -48.474375 147.96875 -48.71875 147.4375 C-50.44203362 144.15905798 -52.4731132 141.09537345 -54.5 138 C-59.34020619 130.60824742 -59.34020619 130.60824742 -61 127 C-61.66 127 -62.32 127 -63 127 C-63.103125 126.05125 -63.20625 125.1025 -63.3125 124.125 C-63.72883984 121.057555 -64.54013627 118.3550946 -65.5625 115.4375 C-67.33790396 109.89789824 -67.15465948 104.6740185 -66.91015625 98.90625 C-66.67189756 95.87148904 -66.67189756 95.87148904 -69 94 C-69.625 91.875 -69.625 91.875 -70 90 C-70.66 90 -71.32 90 -72 90 C-72.19335938 89.31292969 -72.38671875 88.62585938 -72.5859375 87.91796875 C-72.84632812 87.01691406 -73.10671875 86.11585937 -73.375 85.1875 C-73.63023438 84.29417969 -73.88546875 83.40085938 -74.1484375 82.48046875 C-74.95266661 79.79532104 -74.95266661 79.79532104 -77 77 C-77.66 77 -78.32 77 -79 77 C-90.67713608 97.3392739 -90.62738338 120.87397177 -85.13110352 143.20166016 C-83.86152275 147.85918599 -82.15924331 152.03159228 -79.87597656 156.28442383 C-79 158 -79 158 -78 161 C-77.34 161 -76.68 161 -76 161 C-75.731875 161.721875 -75.46375 162.44375 -75.1875 163.1875 C-72.38091977 169.8346637 -68.12415811 174.05287614 -63 179 C-62.38640625 179.65355469 -61.7728125 180.30710938 -61.140625 180.98046875 C-58.53785896 183.43599802 -55.69849475 185.3437951 -52.6875 187.25 C-52.08083496 187.63768555 -51.47416992 188.02537109 -50.84912109 188.42480469 C-45.7662556 191.62257366 -40.53301845 194.47631978 -35.20825195 197.24755859 C-31.84039003 199.00242234 -28.56958289 200.82133957 -25.375 202.875 C-22.27374172 204.98298223 -22.27374172 204.98298223 -19.6953125 205.875 C-15.76609117 207.51502282 -12.34559849 209.88746412 -8.81640625 212.25390625 C-5.38018256 214.46117464 -3.07153868 215.81056666 1 215 C3.55245398 213.66231975 5.90078316 212.30287348 8.3125 210.75 C9.66016509 209.91068033 11.00910942 209.07341092 12.359375 208.23828125 C12.99681641 207.84205566 13.63425781 207.44583008 14.29101562 207.03759766 C16.74104936 205.55007718 19.27468218 204.31256979 21.859375 203.08203125 C25.53634021 201.22341928 29.08149623 199.12532997 32.64770508 197.06445312 C36.31338106 194.94988525 40.00880419 192.91688445 43.75 190.9375 C49.07677129 188.04853786 54.35325545 184.910926 59 181 C59 180.34 59 179.68 59 179 C59.9590625 178.5978125 59.9590625 178.5978125 60.9375 178.1875 C63.33131686 177.11332248 63.33131686 177.11332248 64 174 C64.66 174 65.32 174 66 174 C69.80991264 170.77313468 71.70581214 166.3434905 74 162 C74.50015625 161.11054688 75.0003125 160.22109375 75.515625 159.3046875 C79.59515353 151.74313714 81.76402153 144.36455317 83.55834961 136.01269531 C83.86463893 134.61686933 84.19253111 133.22567677 84.53735352 131.83886719 C88.65060585 114.9138755 86.58824407 95.67386059 78.1875 80.3125 C77.465625 79.219375 76.74375 78.12625 76 77 C72.61421706 77.7411509 72.61421706 77.7411509 71.17578125 81.52734375 C70.54360414 82.99266374 69.92294753 84.46299521 69.3125 85.9375 C68.99216797 86.67935547 68.67183594 87.42121094 68.34179688 88.18554688 C66.61371643 91.95851585 66.61371643 91.95851585 66 96 C65.34 96 64.68 96 64 96 C64.02320313 96.90621094 64.04640625 97.81242187 64.0703125 98.74609375 C64.17479559 105.79870234 64.13315912 112.25123341 62 119 C61.68482422 120.09248047 61.68482422 120.09248047 61.36328125 121.20703125 C57.40652335 132.84568984 48.79883686 143.64168839 40.36328125 152.3984375 C38.78393754 153.90329014 38.78393754 153.90329014 39 156 C38.34 156 37.68 156 37 156 C35.74772516 157.47704212 34.49833478 158.95827399 33.31640625 160.4921875 C32 162 32 162 29 164 C29 164.66 29 165.32 29 166 C28.34 166 27.68 166 27 166 C27 166.66 27 167.32 27 168 C26.34 168 25.68 168 25 168 C23.64567325 169.31200404 22.31266518 170.64631404 21 172 C20.34 172.33 19.68 172.66 19 173 C19.33 173.66 19.66 174.32 20 175 C32.92550885 169.29544581 45.4132738 161.40353585 54 150 C54.59039062 149.27039063 55.18078125 148.54078125 55.7890625 147.7890625 C59.56371361 143.08279538 63.03096329 138.25682185 66 133 C66.48726562 132.14921875 66.97453125 131.2984375 67.4765625 130.421875 C69.49966857 125.87766752 70.53663533 121.27803547 71.625 116.4375 C71.8415625 115.50486328 72.058125 114.57222656 72.28125 113.61132812 C72.86659206 111.07665246 73.44422371 108.5413194 74 106 C74.1861084 105.1531665 74.3722168 104.30633301 74.56396484 103.43383789 C75.13087268 100.2695018 75.0628817 97.20696681 75 94 C75.66 94 76.32 94 77 94 C77.64006198 122.88813085 74.61799479 146.40932667 53.859375 168.12109375 C43.38369083 178.80815459 43.38369083 178.80815459 39 181 C39 181.66 39 182.32 39 183 C37.9790625 183.3403125 37.9790625 183.3403125 36.9375 183.6875 C32.36306537 185.73139632 28.47892346 188.52107654 24.9375 192.0625 C23.05172264 193.94827736 21.09277912 195.3481635 18.859375 196.79296875 C16.42600015 198.37261755 14.02159035 199.99003794 11.625 201.625 C10.75101562 202.21539062 9.87703125 202.80578125 8.9765625 203.4140625 C8.32429688 203.93742188 7.67203125 204.46078125 7 205 C7 205.66 7 206.32 7 207 C6.34 207 5.68 207 5 207 C6.96039638 201.88118723 9.47301824 197.66339878 12.5703125 193.1484375 C15.82256702 188.43073435 15.82256702 188.43073435 17 183 C11.2190275 183.63065155 5.6556294 184.65155132 0 186 C0.495 185.54625 0.99 185.0925 1.5 184.625 C3.22609337 183.12364481 3.22609337 183.12364481 3 181 C3.66 181 4.32 181 5 181 C6.36657834 179.68765591 6.36657834 179.68765591 7.8125 177.875 C11.80917612 173.15471515 16.02522385 168.66404807 20.29223633 164.18896484 C26.8442314 157.85580789 26.8442314 157.85580789 30 150 C30.66 150 31.32 150 32 150 C33.73701964 147.78484603 35.32056369 145.58941114 36.875 143.25 C37.32609131 142.57275879 37.77718262 141.89551758 38.24194336 141.19775391 C46.15436865 128.91324155 49.11614315 114.48492382 46.31640625 100.0546875 C43.11479585 85.69237248 37.77366497 72.88745587 29 61 C28.44570312 60.22269531 27.89140625 59.44539063 27.3203125 58.64453125 C20.83726952 49.88156646 13.07332617 42.04888411 4 36 C3.505 35.484375 3.01 34.96875 2.5 34.4375 C0.94797562 32.74483279 0.94797562 32.74483279 -2 32 Z M63 91 C64 94 64 94 64 94 Z " fill="#48444A" transform="translate(146,10)"/>
<path d="M0 0 C5.66840445 4.09995492 5.66840445 4.09995492 6.875 7.375 C7 10 7 10 6.8828125 13.19140625 C7.00922847 17.29992512 7.83757182 20.62719628 9 24.5625 C10.37305978 29.2204146 11.23986191 33.13530069 11 38 C10.484375 37.835 9.96875 37.67 9.4375 37.5 C6.24804881 36.8457536 3.24614095 36.87750412 0 37 C-0.33 37.33 -0.66 37.66 -1 38 C-0.38511719 38.03738281 0.22976562 38.07476562 0.86328125 38.11328125 C1.67152344 38.17902344 2.47976562 38.24476562 3.3125 38.3125 C4.51326172 38.39951172 4.51326172 38.39951172 5.73828125 38.48828125 C8.41552518 39.09401347 9.30748303 39.87796211 11 42 C12.58684357 45.02942864 13.22467828 47.01783496 12.453125 50.390625 C11.70663657 52.6300903 10.90157477 54.81877072 10 57 C10.804375 57.5775 11.60875 58.155 12.4375 58.75 C15.09981056 61.08763854 15.39935085 61.71368968 16 65 C12.51141327 67.56304331 9.16467308 69.96138524 5.3125 71.9375 C1.50765299 74.30655568 -0.03004721 75.98432701 -2 80 C-2.36337977 82.3320196 -2.559649 84.59039841 -2.62890625 86.94921875 C-3.11194529 89.61864501 -3.85681788 90.35566199 -6 92 C-7.7816953 92.91668903 -9.59867319 93.76658989 -11.4375 94.5625 C-15.33572899 96.25240588 -15.33572899 96.25240588 -19.14453125 98.12890625 C-22.22487849 99.57504822 -24.64145364 99.33585464 -28 99 C-30.80850287 97.90811712 -33.37308339 96.46769015 -36 95 C-37.47604715 94.26453901 -38.95513914 93.53515092 -40.4375 92.8125 C-44 91 -44 91 -45 90 C-45.32135788 88.42242496 -45.60727587 86.83755714 -45.875 85.25 C-47.1801396 78.73355833 -48.83062171 75.64480945 -54.375 71.875 C-55.90882315 70.90416251 -57.44993903 69.94469565 -59 69 C-60.010625 68.38125 -61.02125 67.7625 -62.0625 67.125 C-63.0215625 66.568125 -63.0215625 66.568125 -64 66 C-63.61030333 62.59015418 -63.15140702 61.16871068 -60.8125 58.5625 C-59.9153125 57.2940625 -59.9153125 57.2940625 -59 56 C-59.68314723 52.9502491 -59.68314723 52.9502491 -61 50 C-61.34846322 46.34113615 -60.8725185 44.15987497 -59 41 C-58.34 41 -57.68 41 -57 41 C-57 40.34 -57 39.68 -57 39 C-50.375 38 -50.375 38 -47 38 C-51.0652838 35.9673581 -55.75169592 36.82095525 -60 38 C-59.70956145 36.37478005 -59.41756108 34.74983921 -59.125 33.125 C-58.85429688 31.61486328 -58.85429688 31.61486328 -58.578125 30.07421875 C-58.06507054 27.34601701 -57.47801101 24.64674234 -56.875 21.9375 C-55.97062471 17.63486606 -55.95892266 13.69703576 -56.3203125 9.32421875 C-55.85437638 5.94334077 -54.33953255 4.4376673 -52 2 C-33.28711013 -11.67257588 -18.97419725 -11.62036727 0 0 Z M-7.1875 47 C-8.26064453 47.556875 -8.26064453 47.556875 -9.35546875 48.125 C-9.89816406 48.41375 -10.44085938 48.7025 -11 49 C-11 49.66 -11 50.32 -11 51 C-11.66 51 -12.32 51 -13 51 C-13 51.66 -13 52.32 -13 53 C-13.66 53 -14.32 53 -15 53 C-17.04169485 55.90548882 -18 57.40142046 -18 61 C-13.71396135 63.67877416 -10.81856381 64.45826322 -5.94921875 63.55859375 C-0.52896831 62.00529553 2.15507867 59.11391056 4.875 54.375 C6.54866666 51.34043885 6.54866666 51.34043885 7 48 C-0.12236236 44.74149297 -0.12236236 44.74149297 -7.1875 47 Z M-55 48 C-54.21973001 52.55157497 -53.5285947 56.57002431 -50.0625 59.8125 C-47.96334362 61.24948222 -47.96334362 61.24948222 -45 61 C-45 61.66 -45 62.32 -45 63 C-39.16605611 64.10643764 -36.23420787 64.27137992 -31 61 C-31.28125692 56.35926075 -33.45124187 53.85971398 -36.33203125 50.453125 C-38.21010463 48.81695803 -39.56822368 48.40090022 -42 48 C-42 47.34 -42 46.68 -42 46 C-47.47332932 44.53154579 -50.11922548 45.55961274 -55 48 Z M-58 58 C-57.89386164 60.45224694 -57.89386164 60.45224694 -57 63 C-54.52363988 64.37466625 -54.52363988 64.37466625 -52 65 C-52.80847729 63.83054208 -53.62189112 62.66449539 -54.4375 61.5 C-54.88996094 60.8503125 -55.34242187 60.200625 -55.80859375 59.53125 C-56.20175781 59.0259375 -56.59492187 58.520625 -57 58 C-57.33 58 -57.66 58 -58 58 Z M8 59 C7.34 60.32 6.68 61.64 6 63 C5.34 63 4.68 63 4 63 C4.33 63.66 4.66 64.32 5 65 C6.32 64.34 7.64 63.68 9 63 C8.67 61.68 8.34 60.36 8 59 Z M-25 66 C-25.49371094 66.56589844 -25.98742187 67.13179688 -26.49609375 67.71484375 C-27.13675781 68.44832031 -27.77742188 69.18179688 -28.4375 69.9375 C-29.07558594 70.66839844 -29.71367187 71.39929688 -30.37109375 72.15234375 C-31.22541459 73.12139353 -32.08651175 74.08651175 -33 75 C-33.04063832 76.66617115 -33.042721 78.33388095 -33 80 C-32.67 78.68 -32.34 77.36 -32 76 C-31.01 76.33 -30.02 76.66 -29 77 C-28.38125 76.195625 -27.7625 75.39125 -27.125 74.5625 C-25 72 -25 72 -23 71 C-22.6596875 72.2065625 -22.6596875 72.2065625 -22.3125 73.4375 C-21.879375 74.283125 -21.44625 75.12875 -21 76 C-18.45224694 76.89386164 -18.45224694 76.89386164 -16 77 C-16.66 75.35 -17.32 73.7 -18 72 C-18.66 72 -19.32 72 -20 72 C-20.268125 71.38125 -20.53625 70.7625 -20.8125 70.125 C-21.95556848 67.7004767 -21.95556848 67.7004767 -25 66 Z " fill="#F3F1F4" transform="translate(169,79)"/>
<path d="M0 0 C0 0.66 0 1.32 0 2 C0.57234375 2.2578125 1.1446875 2.515625 1.734375 2.78125 C4.21128995 4.11365942 6.1341166 5.65056118 8.25 7.5 C8.95640625 8.1084375 9.6628125 8.716875 10.390625 9.34375 C12 11 12 11 12 13 C12.639375 13.268125 13.27875 13.53625 13.9375 13.8125 C16 15 16 15 17 18 C19.50447516 19.21869929 19.50447516 19.21869929 22 20 C22 20.66 22 21.32 22 22 C23.485 22.495 23.485 22.495 25 23 C25 23.66 25 24.32 25 25 C25.66 25 26.32 25 27 25 C27 25.66 27 26.32 27 27 C27.57234375 27.24363281 28.1446875 27.48726562 28.734375 27.73828125 C31.40433538 29.22517298 33.13829007 30.98083908 35.25 33.1875 C38.82320195 36.8612722 42.50992892 40.24029876 46.46875 43.4921875 C48 45 48 45 49 48 C49.66 48 50.32 48 51 48 C51 48.66 51 49.32 51 50 C51.5671875 50.23589844 52.134375 50.47179688 52.71875 50.71484375 C60.36513844 55.02248381 65.04145838 63.02480084 68 71 C69.32 68.36 70.64 65.72 72 63 C78.36378702 64.59094676 80.62578233 69.62335643 84 75 C90.97394768 87.77776992 93.57112628 99.94739281 93.5 114.4375 C93.49468262 116.39852661 93.49468262 116.39852661 93.48925781 118.39916992 C93.17866967 136.76100583 88.23808622 151.81804493 80 168 C79.34 168 78.68 168 78 168 C77.91621094 168.55300781 77.83242187 169.10601562 77.74609375 169.67578125 C76.75554872 172.76151053 75.11759594 174.68454484 73.0625 177.1875 C71.99708984 178.50814453 71.99708984 178.50814453 70.91015625 179.85546875 C63.63801398 188.00838152 55.60245992 193.82105659 46 198.9375 C44.9063916 199.53449707 43.8127832 200.13149414 42.68603516 200.74658203 C40.48650285 201.94700038 38.28423929 203.14242954 36.07910156 204.33251953 C32.56309976 206.23660234 29.07178849 208.1817372 25.58447266 210.13769531 C22.74918906 211.72545413 19.90316759 213.29335413 17.05664062 214.86083984 C14.93213666 216.03758907 12.8177446 217.23137714 10.703125 218.42578125 C9.34409213 219.18030407 7.98473226 219.93423829 6.625 220.6875 C6.01188965 221.03925293 5.3987793 221.39100586 4.76708984 221.75341797 C0.5120982 224.0823015 0.5120982 224.0823015 -1.96875 223.68359375 C-5.33622385 222.55030928 -8.46234485 220.91467092 -11.625 219.3125 C-12.34212158 218.95164307 -13.05924316 218.59078613 -13.7980957 218.21899414 C-18.49441307 215.83088369 -23.03309854 213.27359099 -27.51171875 210.49609375 C-30.4561492 208.72573761 -33.46695469 207.11362248 -36.5 205.5 C-41.28409299 202.95035985 -45.96462757 200.29023716 -50.5859375 197.45703125 C-52.49282642 196.30610962 -54.43431915 195.21253066 -56.38671875 194.140625 C-60.03066811 192.06137848 -63.23864182 189.6440016 -66.4375 186.9375 C-67.27945923 186.22557495 -67.27945923 186.22557495 -68.13842773 185.49926758 C-73.34082701 180.95231225 -77.25481477 175.7959131 -81 170 C-81.65742187 169.07058594 -82.31484375 168.14117187 -82.9921875 167.18359375 C-85.29298098 163.53544844 -86.95071841 159.86391168 -88.5625 155.875 C-88.86623535 155.12871338 -89.1699707 154.38242676 -89.48291016 153.61352539 C-94.52749572 140.92302691 -96.1790288 128.69587024 -96.1875 115.125 C-96.19974609 114.10019531 -96.21199219 113.07539062 -96.22460938 112.01953125 C-96.25681456 95.12254672 -91.19548811 77.11734347 -79.0625 64.8125 C-78.381875 64.214375 -77.70125 63.61625 -77 63 C-75.515 63.495 -75.515 63.495 -74 64 C-72.3125 67.5625 -72.3125 67.5625 -71 71 C-70.75765625 70.49210937 -70.5153125 69.98421875 -70.265625 69.4609375 C-64.55065082 57.72325976 -64.55065082 57.72325976 -60 54 C-59.34 54 -58.68 54 -58 54 C-58 53.34 -58 52.68 -58 52 C-57.34 52 -56.68 52 -56 52 C-56 51.34 -56 50.68 -56 50 C-51.69767442 45.23255814 -51.69767442 45.23255814 -48 44 C-48 43.34 -48 42.68 -48 42 C-47.34 42 -46.68 42 -46 42 C-46 41.34 -46 40.68 -46 40 C-44.54223633 38.54589844 -44.54223633 38.54589844 -42.51953125 36.859375 C-38.11665884 33.11513893 -33.89306092 29.21331426 -29.6875 25.25 C-28.98560547 24.59128906 -28.28371094 23.93257812 -27.56054688 23.25390625 C-23.90622786 19.8500658 -23.90622786 19.8500658 -20.40551758 16.29199219 C-19 15 -19 15 -17 15 C-17 14.34 -17 13.68 -17 13 C-11.52380952 8 -11.52380952 8 -9 8 C-8.773125 7.4225 -8.54625 6.845 -8.3125 6.25 C-6.47530093 3.10051589 -3.84497849 0 0 0 Z M-2 10 C-2 10.66 -2 11.32 -2 12 C-2.9590625 12.4021875 -2.9590625 12.4021875 -3.9375 12.8125 C-6.33131686 13.88667752 -6.33131686 13.88667752 -7 17 C-7.7425 17.28875 -8.485 17.5775 -9.25 17.875 C-12.7055128 19.28861887 -14.55229193 21.21233247 -17 24 C-17.33 24.99 -17.66 25.98 -18 27 C-19.30783414 27.71539645 -20.64592439 28.37654073 -22 29 C-23.28187437 29.95880034 -24.5331293 30.95993957 -25.75 32 C-26.36359375 32.515625 -26.9771875 33.03125 -27.609375 33.5625 C-29.23176376 34.90623252 -29.23176376 34.90623252 -29 37 C-29.53625 37.226875 -30.0725 37.45375 -30.625 37.6875 C-36.27265728 40.80857376 -39.92856655 45.09340072 -44 50 C-45.66666667 51.33333333 -47.33333333 52.66666667 -49 54 C-49 54.66 -49 55.32 -49 56 C-49.66 56 -50.32 56 -51 56 C-52.70682481 57.64873805 -52.70682481 57.64873805 -54.4375 59.75 C-55.33275391 60.79414062 -55.33275391 60.79414062 -56.24609375 61.859375 C-56.82488281 62.56578125 -57.40367188 63.2721875 -58 64 C-58.51433594 64.59167969 -59.02867188 65.18335938 -59.55859375 65.79296875 C-61.55113933 68.84388542 -62.57117341 72.10578635 -63.625 75.5625 C-63.84373779 76.26761719 -64.06247559 76.97273438 -64.2878418 77.69921875 C-65.98896562 83.42822361 -66.86048056 89.01334755 -67 95 C-67.66 94.67 -68.32 94.34 -69 94 C-69.625 91.9375 -69.625 91.9375 -70 90 C-70.66 90 -71.32 90 -72 90 C-72.19335938 89.31292969 -72.38671875 88.62585938 -72.5859375 87.91796875 C-72.84632812 87.01691406 -73.10671875 86.11585937 -73.375 85.1875 C-73.63023438 84.29417969 -73.88546875 83.40085937 -74.1484375 82.48046875 C-74.95266661 79.79532104 -74.95266661 79.79532104 -77 77 C-77.66 77 -78.32 77 -79 77 C-90.67713608 97.3392739 -90.62738338 120.87397177 -85.13110352 143.20166016 C-83.86152275 147.85918599 -82.15924331 152.03159228 -79.87597656 156.28442383 C-79 158 -79 158 -78 161 C-77.34 161 -76.68 161 -76 161 C-75.731875 161.721875 -75.46375 162.44375 -75.1875 163.1875 C-72.38091977 169.8346637 -68.12415811 174.05287614 -63 179 C-62.38640625 179.65355469 -61.7728125 180.30710938 -61.140625 180.98046875 C-58.53785896 183.43599802 -55.69849475 185.3437951 -52.6875 187.25 C-52.08083496 187.63768555 -51.47416992 188.02537109 -50.84912109 188.42480469 C-45.7662556 191.62257366 -40.53301845 194.47631978 -35.20825195 197.24755859 C-31.84039003 199.00242234 -28.56958289 200.82133957 -25.375 202.875 C-22.27374172 204.98298223 -22.27374172 204.98298223 -19.6953125 205.875 C-15.76609117 207.51502282 -12.34559849 209.88746412 -8.81640625 212.25390625 C-5.38018256 214.46117464 -3.07153868 215.81056666 1 215 C3.55245398 213.66231975 5.90078316 212.30287348 8.3125 210.75 C9.66016509 209.91068033 11.00910942 209.07341092 12.359375 208.23828125 C12.99681641 207.84205566 13.63425781 207.44583008 14.29101562 207.03759766 C16.74104936 205.55007718 19.27468218 204.31256979 21.859375 203.08203125 C25.53634021 201.22341928 29.08149623 199.12532997 32.64770508 197.06445312 C36.31338106 194.94988525 40.00880419 192.91688445 43.75 190.9375 C49.07677129 188.04853786 54.35325545 184.910926 59 181 C59 180.34 59 179.68 59 179 C59.9590625 178.5978125 59.9590625 178.5978125 60.9375 178.1875 C63.33131686 177.11332248 63.33131686 177.11332248 64 174 C64.66 174 65.32 174 66 174 C69.80991264 170.77313468 71.70581214 166.3434905 74 162 C74.50015625 161.11054688 75.0003125 160.22109375 75.515625 159.3046875 C79.59515353 151.74313714 81.76402153 144.36455317 83.55834961 136.01269531 C83.86463893 134.61686933 84.19253111 133.22567677 84.53735352 131.83886719 C88.65060585 114.9138755 86.58824407 95.67386059 78.1875 80.3125 C77.465625 79.219375 76.74375 78.12625 76 77 C75.01 77.33 74.02 77.66 73 78 C71.69078338 80.65925515 70.53391871 83.25541639 69.4375 86 C66.25121163 93.87439418 66.25121163 93.87439418 64 95 C63.96132813 94.06994141 63.96132813 94.06994141 63.921875 93.12109375 C63.13140499 80.77898239 61.15520816 69.77285608 52 61 C51.47535156 60.27167969 50.95070312 59.54335937 50.41015625 58.79296875 C49.94480469 58.20128906 49.47945312 57.60960937 49 57 C48.34 57 47.68 57 47 57 C46.7421875 56.40316406 46.484375 55.80632812 46.21875 55.19140625 C44.89941578 52.81914183 43.6125068 51.61586875 41.5 49.9375 C39.06335088 47.99127814 37.77737879 46.66606818 36 44 C35.34 44 34.68 44 34 44 C34 43.34 34 42.68 34 42 C32.48014386 40.44305125 32.48014386 40.44305125 30.4921875 38.8359375 C26.24359903 35.2228616 22.17580272 31.45700169 18.125 27.625 C8.76432717 17.81912697 8.76432717 17.81912697 -2 10 Z " fill="#E5E0E8" transform="translate(146,10)"/>
<path d="M0 0 C0.99 0 1.98 0 3 0 C3.91460833 10.61961891 3.91460833 10.61961891 1.734375 13.91015625 C-0.41238154 15.69738317 -2.13981359 17 -5 17 C-5 17.66 -5 18.32 -5 19 C-6.57421875 20.296875 -6.57421875 20.296875 -8.6875 21.75 C-12.50674452 24.51357306 -15.09264939 27.30687896 -18 31 C-18.78246094 31.763125 -19.56492188 32.52625 -20.37109375 33.3125 C-35.97204875 49.26117317 -44.97629799 71.88602115 -45 94 C-45.01160156 94.90363281 -45.02320312 95.80726562 -45.03515625 96.73828125 C-44.53014156 109.08084038 -37.34346494 119.5898939 -30 129 C-28.59925775 130.95482513 -27.20335832 132.91313016 -25.8125 134.875 C-23.7258157 137.75700209 -21.69456718 140.47342825 -19.125 142.9375 C-17.11192436 144.89136753 -16.0493761 146.42425867 -15 149 C-14.34 149 -13.68 149 -13 149 C-10.375 151.375 -10.375 151.375 -8 154 C-8 154.66 -8 155.32 -8 156 C-7.34 156 -6.68 156 -6 156 C-4.5625 157.49609375 -4.5625 157.49609375 -3 159.4375 C-0.85474956 162.15188238 -0.85474956 162.15188238 2 164 C2 164.99 2 165.98 2 167 C-4.0509304 165.83445193 -10.03466226 164.54656904 -16 163 C-15.505 163.763125 -15.01 164.52625 -14.5 165.3125 C-13 168 -13 168 -13 171 C-12.34 171 -11.68 171 -11 171 C-9.52313012 173.07888712 -8.18604262 175.13283374 -6.875 177.3125 C-6.31619141 178.20485352 -6.31619141 178.20485352 -5.74609375 179.11523438 C-3 183.61661516 -3 183.61661516 -3 187 C-7.49014624 185.50328459 -11.47848764 183.16631659 -15 180 C-15 179.34 -15 178.68 -15 178 C-15.69867188 177.76539063 -16.39734375 177.53078125 -17.1171875 177.2890625 C-20.5227293 175.76625925 -23.23730319 173.69038011 -26.125 171.375 C-27.26578602 170.47511409 -28.40773491 169.57670058 -29.55078125 168.6796875 C-30.40857178 168.00631348 -30.40857178 168.00631348 -31.28369141 167.31933594 C-34.78703941 164.62629289 -38.42475069 162.11800523 -42.05078125 159.59375 C-42.69402344 159.0678125 -43.33726563 158.541875 -44 158 C-44 157.34 -44 156.68 -44 156 C-44.99 155.67 -45.98 155.34 -47 155 C-47 154.34 -47 153.68 -47 153 C-47.53625 152.79375 -48.0725 152.5875 -48.625 152.375 C-51.91978009 150.46749574 -54.59363628 147.95180616 -57 145 C-57 144.34 -57 143.68 -57 143 C-57.66 143 -58.32 143 -59 143 C-60.71956032 140.82696271 -62.2795618 138.67581007 -63.8125 136.375 C-64.48635742 135.36360962 -64.48635742 135.36360962 -65.17382812 134.33178711 C-72.05498452 123.62679507 -76.29827151 110.98566673 -76.1953125 98.21875 C-76.1924826 97.51979614 -76.18965271 96.82084229 -76.18673706 96.10070801 C-76.1756727 93.90028684 -76.15059606 91.70029507 -76.125 89.5 C-76.11495235 87.99479761 -76.10582965 86.48958874 -76.09765625 84.984375 C-76.07577893 81.32278062 -76.04134696 77.66143232 -76 74 C-75.34 74 -74.68 74 -74 74 C-73.89977539 74.56807373 -73.79955078 75.13614746 -73.69628906 75.72143555 C-69.01806557 101.95820712 -61.53320881 125.64907108 -38.9375 142.25 C-37.968125 142.8275 -36.99875 143.405 -36 144 C-34.53977086 144.99722965 -33.08161166 145.99749385 -31.625 147 C-27.56022276 149.71905302 -23.41879799 151.91111368 -19 154 C-22.37532279 150.5223947 -25.87414566 147.37888869 -29.64453125 144.33203125 C-30.09183594 143.89246094 -30.53914063 143.45289063 -31 143 C-31 142.34 -31 141.68 -31 141 C-31.928125 140.6596875 -31.928125 140.6596875 -32.875 140.3125 C-35.6219805 138.61583557 -35.86635273 136.94748289 -37 134 C-37.99 133.67 -38.98 133.34 -40 133 C-40 132.34 -40 131.68 -40 131 C-40.66 131 -41.32 131 -42 131 C-42 130.34 -42 129.68 -42 129 C-42.66 129 -43.32 129 -44 129 C-46.06844648 126.64240683 -47.74182132 123.96910859 -49.5 121.375 C-49.99886719 120.66214844 -50.49773437 119.94929688 -51.01171875 119.21484375 C-53.72298565 115.25334118 -55.7550723 111.69812001 -57 107 C-57.66 107 -58.32 107 -59 107 C-67.29582087 82.79397982 -67.29582087 82.79397982 -63.08984375 72.84765625 C-62.73019531 72.23792969 -62.37054688 71.62820312 -62 71 C-61.36768245 69.58658429 -60.74295116 68.16975555 -60.125 66.75 C-58.21749373 62.42584105 -56.14403589 58.21149906 -54 54 C-53.34 54 -52.68 54 -52 54 C-51.7525 53.46375 -51.505 52.9275 -51.25 52.375 C-49.70185114 49.43351717 -47.86989043 46.74640157 -46 44 C-45.34 43.01 -44.68 42.02 -44 41 C-43.34 41 -42.68 41 -42 41 C-42 40.34 -42 39.68 -42 39 C-40.38263914 37.23101156 -38.7592777 35.62071884 -37 34 C-36.32582031 33.37867188 -35.65164062 32.75734375 -34.95703125 32.1171875 C-29.2701164 27 -29.2701164 27 -27 27 C-26.731875 26.360625 -26.46375 25.72125 -26.1875 25.0625 C-25 23 -25 23 -22 22 C-22 21.34 -22 20.68 -22 20 C-20.58585118 19.05723412 -19.16743272 18.12014748 -17.7265625 17.21875 C-15.84191312 15.88840926 -14.34398449 14.41465376 -12.75 12.75 C-11.8425 11.8425 -10.935 10.935 -10 10 C-9.34 10 -8.68 10 -8 10 C-8 9.34 -8 8.68 -8 8 C-6.50390625 6.5625 -6.50390625 6.5625 -4.5625 5 C-1.84811762 2.85474956 -1.84811762 2.85474956 0 0 Z " fill="#605D62" transform="translate(142,30)"/>
<path d="M0 0 C6.68806592 0.64308326 12.29938032 2.84816917 18.25 5.8125 C18.92289063 6.14378906 19.59578125 6.47507812 20.2890625 6.81640625 C31.01560395 12.32806786 31.01560395 12.32806786 32.875 17.375 C33 20 33 20 32.8828125 23.19140625 C33.00922847 27.29992512 33.83757182 30.62719628 35 34.5625 C36.37305978 39.2204146 37.23986191 43.13530069 37 48 C36.484375 47.835 35.96875 47.67 35.4375 47.5 C32.24804881 46.8457536 29.24614095 46.87750412 26 47 C25.67 47.33 25.34 47.66 25 48 C25.61488281 48.03738281 26.22976562 48.07476562 26.86328125 48.11328125 C27.67152344 48.17902344 28.47976562 48.24476562 29.3125 48.3125 C30.51326172 48.39951172 30.51326172 48.39951172 31.73828125 48.48828125 C34.41552518 49.09401347 35.30748303 49.87796211 37 52 C38.58684357 55.02942864 39.22467828 57.01783496 38.453125 60.390625 C37.70663657 62.6300903 36.90157477 64.81877072 36 67 C37.2065625 67.86625 37.2065625 67.86625 38.4375 68.75 C41.09981056 71.08763854 41.39935085 71.71368968 42 75 C38.51141327 77.56304331 35.16467308 79.96138524 31.3125 81.9375 C27.50765299 84.30655568 25.96995279 85.98432701 24 90 C23.63662023 92.3320196 23.440351 94.59039841 23.37109375 96.94921875 C22.88805471 99.61864501 22.14318212 100.35566199 20 102 C18.2183047 102.91668903 16.40132681 103.76658989 14.5625 104.5625 C10.65264176 106.25684364 10.65264176 106.25684364 6.83984375 108.15234375 C5 109 5 109 2 109 C2 100.42 2 91.84 2 83 C1.34 82.67 0.68 82.34 0 82 C1.485 81.505 1.485 81.505 3 81 C4.32 82.65 5.64 84.3 7 86 C7.99 85.505 7.99 85.505 9 85 C8.67 84.01 8.34 83.02 8 82 C7.34 82 6.68 82 6 82 C1.9002332 78.15582102 0.72300439 75.17015922 0.5330534 69.51889896 C0.51702868 65.71894517 0.61476559 61.92679834 0.73046875 58.12890625 C0.76226515 56.47985411 0.79179754 54.8307569 0.81916809 53.18162537 C0.89695602 48.85895478 1.00533173 44.53758116 1.12023926 40.21575928 C1.23221758 35.79850924 1.31505219 31.3807214 1.40039062 26.96289062 C1.5718512 18.30780611 1.7756518 9.6538744 2 1 C1.34 0.67 0.68 0.34 0 0 Z M18.8125 57 C17.73935547 57.556875 17.73935547 57.556875 16.64453125 58.125 C16.10183594 58.41375 15.55914062 58.7025 15 59 C15 59.66 15 60.32 15 61 C14.34 61 13.68 61 13 61 C13 61.66 13 62.32 13 63 C12.34 63 11.68 63 11 63 C8.95830515 65.90548882 8 67.40142046 8 71 C12.28603865 73.67877416 15.18143619 74.45826322 20.05078125 73.55859375 C25.47103169 72.00529553 28.15507867 69.11391056 30.875 64.375 C32.54866666 61.34043885 32.54866666 61.34043885 33 58 C25.87763764 54.74149297 25.87763764 54.74149297 18.8125 57 Z M34 69 C33.34 70.32 32.68 71.64 32 73 C31.34 73 30.68 73 30 73 C30.33 73.66 30.66 74.32 31 75 C32.32 74.34 33.64 73.68 35 73 C34.67 71.68 34.34 70.36 34 69 Z " fill="#959496" transform="translate(143,69)"/>
<path d="M0 0 C2.558552 1.46936922 4.68298293 3.14638634 7 5 C9.31 3.35 11.62 1.7 14 0 C17.62885578 1.45154231 19.15432673 3.2400638 21.25 6.5 C22.03117187 7.69109375 22.03117187 7.69109375 22.828125 8.90625 C24 11 24 11 24 13 C22.03852126 14.38938077 20.03833424 15.7260411 18 17 C18.40992188 17.51949219 18.81984375 18.03898437 19.2421875 18.57421875 C26 27.32057416 26 27.32057416 26 33 C27.32 33.33 28.64 33.66 30 34 C30 34.66 30 35.32 30 36 C27.8125 38.1875 27.8125 38.1875 25 40 C22.48828125 39.98046875 22.48828125 39.98046875 20 39 C18.5234375 36.3828125 18.5234375 36.3828125 17.375 33.125 C15.61451279 27.93249539 15.61451279 27.93249539 12 24 C11.01 23.67 10.02 23.34 9 23 C9 25.97 9 28.94 9 32 C11.64 32.33 14.28 32.66 17 33 C15.72200196 35.85091869 14.62103327 38.22144171 12 40 C9.00224356 39.75528519 6.69322172 39.34661086 4 38 C-1.41301783 37.62516781 -6.6670318 38.09226073 -12 39 C-10.4972742 34.79236776 -7.76667005 33.1972242 -4 31 C-3.34 31 -2.68 31 -2 31 C-4.03059135 25.24665785 -6.08029436 22.60778414 -11 19 C-8.42215154 16.35247996 -6.08351902 14.05567935 -3 12 C-2.7497843 8.91634129 -2.7497843 8.91634129 -3 6 C-5.89234315 5.17361624 -7.88742431 5 -11 5 C-10.1875 3.0625 -10.1875 3.0625 -9 1 C-5.59630052 -0.13456649 -3.57368631 -0.41234842 0 0 Z M9 7 C9 10.96 9 14.92 9 19 C11.31 17.68 13.62 16.36 16 15 C14.63055898 12.05043472 13.12169591 9.47531189 11 7 C10.34 7 9.68 7 9 7 Z M-3 15 C-3 18 -3 18 -3 18 Z " fill="#FFFFFF" transform="translate(266,107)"/>
<path d="M0 0 C1.32 0 2.64 0 4 0 C4.33 1.32 4.66 2.64 5 4 C5.7425 3.319375 6.485 2.63875 7.25 1.9375 C10 0 10 0 12.125 0 C14.72047042 1.38425089 15.54398689 2.39365608 17 5 C17.49791533 8.17089455 17.50966735 11.29527446 17.5 14.5 C17.52835937 15.35464844 17.55671875 16.20929688 17.5859375 17.08984375 C17.60543047 23.33733979 17.60543047 23.33733979 14.64453125 26.578125 C11.79222603 28.11171304 10.18572096 28.3640824 7 28 C7.56739868 32.12973628 7.56739868 32.12973628 9 36 C5.04 35.67 1.08 35.34 -3 35 C-2.34 31.7 -1.68 28.4 -1 25 C-1.99 24.67 -2.98 24.34 -4 24 C-4 23.34 -4 22.68 -4 22 C-3.34 21.67 -2.68 21.34 -2 21 C-1.68758629 18.45058627 -1.48696579 15.99638487 -1.375 13.4375 C-1.33632813 12.72658203 -1.29765625 12.01566406 -1.2578125 11.28320312 C-1.16328217 9.52257575 -1.08054183 7.76132272 -1 6 C-1.99 6 -2.98 6 -4 6 C-2.84826645 3.53199953 -1.95216435 1.95216435 0 0 Z M8 6 C5.67133771 7.88846183 5.67133771 7.88846183 5.8046875 11.0390625 C5.82789063 12.22242188 5.85109375 13.40578125 5.875 14.625 C5.89304687 15.81351563 5.91109375 17.00203125 5.9296875 18.2265625 C5.95289063 19.14179688 5.97609375 20.05703125 6 21 C8.475 21.495 8.475 21.495 11 22 C11.08075665 19.70890403 11.13907731 17.41700733 11.1875 15.125 C11.23970703 13.21074219 11.23970703 13.21074219 11.29296875 11.2578125 C11.19628906 10.18273437 11.09960938 9.10765625 11 8 C10.01 7.34 9.02 6.68 8 6 Z " fill="#FFFFFF" transform="translate(343,118)"/>
<path d="M0 0 C2 0.33333333 4 0.66666667 6 1 C5.67 1.99 5.34 2.98 5 4 C4.85507877 5.40664926 4.75371069 6.8181133 4.68359375 8.23046875 C4.64169922 9.03291016 4.59980469 9.83535156 4.55664062 10.66210938 C4.51732422 11.49548828 4.47800781 12.32886719 4.4375 13.1875 C4.39431641 14.03248047 4.35113281 14.87746094 4.30664062 15.74804688 C4.20068482 17.83184433 4.0998498 19.91590103 4 22 C4.99 22 5.98 22 7 22 C5.9024777 24.99324263 5.32317108 25.84610901 2.375 27.25 C1.59125 27.4975 0.8075 27.745 0 28 C-1.32 26.68 -2.64 25.36 -4 24 C-5.65 25.32 -7.3 26.64 -9 28 C-12.16115776 26.63016497 -12.9927092 26.0109362 -15 23 C-15.15419862 19.01286415 -14.92787691 15.14200234 -12.375 12 C-10.05742324 8.62897925 -11.31399848 4.86805676 -12 1 C-7.48212067 -0.82866544 -4.73193089 -1.08440083 0 0 Z M-8 4 C-7.81171228 6.44480079 -7.81171228 6.44480079 -7 9 C-5.03241727 10.36020151 -5.03241727 10.36020151 -3 11 C-3 9.35 -3 7.7 -3 6 C-5.475 5.01 -5.475 5.01 -8 4 Z M-8 12 C-9.15837626 16.05431692 -8.83691257 18.21812119 -7 22 C-4.9004467 20.84315671 -4.9004467 20.84315671 -3 19 C-2.66574265 16.37374861 -2.66574265 16.37374861 -3 14 C-5.475 13.01 -5.475 13.01 -8 12 Z " fill="#FFFFFF" transform="translate(331,119)"/>
<path d="M0 0 C1.703125 1.62890625 1.703125 1.62890625 3.25 3.5625 C3.77078125 4.20316406 4.2915625 4.84382813 4.828125 5.50390625 C5.21484375 5.99761719 5.6015625 6.49132812 6 7 C5.3503125 7.51949219 4.700625 8.03898437 4.03125 8.57421875 C3.1959375 9.27160156 2.360625 9.96898437 1.5 10.6875 C0.24703125 11.71423828 0.24703125 11.71423828 -1.03125 12.76171875 C-3.25622972 14.85409757 -3.25622972 14.85409757 -3.28125 17.76953125 C-3.1884375 18.50558594 -3.095625 19.24164063 -3 20 C0.05263664 20.98120464 1.94736336 20.98120464 5 20 C3.50733258 23.79951706 1.44718865 25.8354862 -2 28 C-5.63132197 27.8184339 -8.65307999 26.3499244 -12 25 C-12.03545327 21.60232052 -11.99341356 18.20980775 -11.9375 14.8125 C-11.94845703 13.85279297 -11.95941406 12.89308594 -11.97070312 11.90429688 C-11.80326331 4.99142463 -11.80326331 4.99142463 -9.52001953 2.17333984 C-6.14038239 -0.43561369 -4.16432405 -1.5805244 0 0 Z M-4 6 C-4 7.65 -4 9.3 -4 11 C-3.01 10.34 -2.02 9.68 -1 9 C-1.99 8.01 -2.98 7.02 -4 6 Z " fill="#FFFFFF" transform="translate(309,119)"/>
<path d="M0 0 C2.8756892 1.62955721 4.79398268 3.50582157 6.875 6.0625 C6.68438007 8.68481205 6.20758564 9.75110854 4.28125 11.5546875 C3.6521875 12.01101562 3.023125 12.46734375 2.375 12.9375 C-0.45925033 15.20953708 -1.04560478 15.77667722 -2.0625 19.4375 C-2.083125 20.30375 -2.10375 21.17 -2.125 22.0625 C1.835 21.5675 1.835 21.5675 5.875 21.0625 C5.875 24.0625 5.875 24.0625 4.66015625 25.5546875 C2.74500362 27.09202091 1.17977931 28.18827337 -1.125 29.0625 C-4.42362229 28.68657354 -7.23594113 27.69302035 -10.125 26.0625 C-10.455 25.4025 -10.785 24.7425 -11.125 24.0625 C-10.795 23.4025 -10.465 22.7425 -10.125 22.0625 C-10.01674691 16.3887193 -10.01674691 16.3887193 -10.046875 10.71484375 C-9.99200576 8.31235467 -9.87055283 6.35008115 -9.125 4.0625 C-6.53032422 1.60548915 -3.64152576 0.1071037 0 0 Z M-2.125 8.0625 C-1.795 9.3825 -1.465 10.7025 -1.125 12.0625 C-1.125 10.7425 -1.125 9.4225 -1.125 8.0625 C-1.455 8.0625 -1.785 8.0625 -2.125 8.0625 Z " fill="#FFFFFF" transform="translate(374.125,117.9375)"/>
<path d="M0 0 C2.75 0.25 2.75 0.25 5 1 C5 1.66 5 2.32 5 3 C5.86625 2.2265625 5.86625 2.2265625 6.75 1.4375 C9 0 9 0 11.1875 0.25 C13 1 13 1 14 2 C14.04063832 3.66617115 14.042721 5.33388095 14 7 C12.02 7.99 12.02 7.99 10 9 C9.01 8.34 8.02 7.68 7 7 C7 11.62 7 16.24 7 21 C8.65 21.33 10.3 21.66 12 22 C9.03 25.465 9.03 25.465 6 29 C2.95048605 27.47524303 0.63600494 26.07114674 -2 24 C-1.84015625 23.47535156 -1.6803125 22.95070312 -1.515625 22.41015625 C-0.86889362 19.387177 -0.79219162 16.52803644 -0.75 13.4375 C-0.72421875 12.30183594 -0.6984375 11.16617188 -0.671875 9.99609375 C-0.73111427 6.98991423 -0.73111427 6.98991423 -2.515625 5.09765625 C-3.00546875 4.73542969 -3.4953125 4.37320313 -4 4 C-2.3125 1.9375 -2.3125 1.9375 0 0 Z " fill="#FFFFFF" transform="translate(386,118)"/>
<path d="M0 0 C2 3 2 3 3 6 C2.44140625 8.26171875 2.44140625 8.26171875 1.5625 10.6875 C1.27503906 11.49574219 0.98757812 12.30398437 0.69140625 13.13671875 C0.46324219 13.75160156 0.23507813 14.36648437 0 15 C0.99 15.99 1.98 16.98 3 18 C0.92446352 18.5534764 -0.84365964 19 -3 19 C-3.33 19.66 -3.66 20.32 -4 21 C-3.67 21.33 -3.34 21.66 -3 22 C-3.33 22.66 -3.66 23.32 -4 24 C-5.65 24 -7.3 24 -9 24 C-8.34 23.67 -7.68 23.34 -7 23 C-7 21.35 -7 19.7 -7 18 C-8.32 18.33 -9.64 18.66 -11 19 C-10.67 18.34 -10.34 17.68 -10 17 C-9.34 17 -8.68 17 -8 17 C-7.731875 16.29875 -7.46375 15.5975 -7.1875 14.875 C-5.9318551 11.8350176 -4.49764877 8.9272226 -3 6 C-3.66 5.67 -4.32 5.34 -5 5 C-3.68 5 -2.36 5 -1 5 C-0.67 3.35 -0.34 1.7 0 0 Z " fill="#7B7180" transform="translate(179,121)"/>
<path d="M0 0 C1.7074998 1.28062485 3.37373596 2.61767557 5 4 C5 4.66 5 5.32 5 6 C5.66 6 6.32 6 7 6 C9.625 8.375 9.625 8.375 12 11 C12 11.66 12 12.32 12 13 C12.66 13 13.32 13 14 13 C14.66 14.32 15.32 15.64 16 17 C12.7 16.67 9.4 16.34 6 16 C6 15.34 6 14.68 6 14 C5.34 14 4.68 14 4 14 C-0.76744186 9.69767442 -0.76744186 9.69767442 -2 6 C-1.01 6 -0.02 6 1 6 C0.67 4.02 0.34 2.04 0 0 Z " fill="#57535B" transform="translate(122,173)"/>
<path d="M0 0 C1.06347656 0.17144531 2.12695312 0.34289062 3.22265625 0.51953125 C5.9375 1.1875 5.9375 1.1875 7.9375 3.1875 C8.1875 6.1875 8.1875 6.1875 7.9375 9.1875 C7.2775 9.8475 6.6175 10.5075 5.9375 11.1875 C5.9375 10.5275 5.9375 9.8675 5.9375 9.1875 C4.0503125 9.0328125 4.0503125 9.0328125 2.125 8.875 C-0.56003112 8.54292901 -1.79859651 8.38329936 -4 6.75 C-5.0625 5.1875 -5.0625 5.1875 -6.0625 3.1875 C-7.0525 3.5175 -8.0425 3.8475 -9.0625 4.1875 C-9.0625 2.8675 -9.0625 1.5475 -9.0625 0.1875 C-5.54424645 -0.98525118 -3.63113959 -0.61327874 0 0 Z " fill="#87808C" transform="translate(171.0625,116.8125)"/>
<path d="M0 0 C2.4375 0.75 2.4375 0.75 5 2 C5.66015625 4.078125 5.66015625 4.078125 6 6 C4.92250558 6.82022749 3.83770492 7.63086169 2.75 8.4375 C1.84507812 9.11619141 1.84507812 9.11619141 0.921875 9.80859375 C-1.06292756 11.03900997 -2.71987655 11.56112668 -5 12 C-5.33 10.68 -5.66 9.36 -6 8 C-5.34 8 -4.68 8 -4 8 C-3.67 6.68 -3.34 5.36 -3 4 C-2.34 4 -1.68 4 -1 4 C-0.67 2.68 -0.34 1.36 0 0 Z " fill="#8E8890" transform="translate(179,138)"/>
<path d="M0 0 C0.66 0 1.32 0 2 0 C2.92553743 3.13850064 3.11664647 5.93680778 3.09765625 9.203125 C3.09443359 10.1828125 3.09121094 11.1625 3.08789062 12.171875 C3.07951172 13.18765625 3.07113281 14.2034375 3.0625 15.25 C3.05798828 16.28125 3.05347656 17.3125 3.04882812 18.375 C3.03706088 20.91672573 3.02062011 23.45833319 3 26 C0.79086 22.68629 0.77518447 21.6553979 0.875 17.8125 C0.89304688 16.91144531 0.91109375 16.01039062 0.9296875 15.08203125 C0.95289063 14.39496094 0.97609375 13.70789063 1 13 C0.34 14.65 -0.32 16.3 -1 18 C-1.33 18 -1.66 18 -2 18 C-1.48758893 11.97099313 -0.930215 5.97995357 0 0 Z " fill="#403348" transform="translate(221,104)"/>
<path d="M0 0 C-0.59238734 3.18408195 -1.23690909 5.36465118 -3.7734375 7.4765625 C-7.12373468 9.60630532 -10.09132019 11.18496138 -14 12 C-12.625 10 -12.625 10 -11 8 C-10.34 8 -9.68 8 -9 8 C-8.731875 7.360625 -8.46375 6.72125 -8.1875 6.0625 C-7 4 -7 4 -4 3 C-4 2.34 -4 1.68 -4 1 C-2 0 -2 0 0 0 Z " fill="#594C62" transform="translate(124,49)"/>
<path d="M0 0 C2.4375 0.75 2.4375 0.75 5 2 C5.8125 4.125 5.8125 4.125 6 6 C5.01 6.66 4.02 7.32 3 8 C3 7.34 3 6.68 3 6 C0.03 5.505 0.03 5.505 -3 5 C-2.34 4.67 -1.68 4.34 -1 4 C-0.34786708 1.97536745 -0.34786708 1.97536745 0 0 Z " fill="#887E8B" transform="translate(179,138)"/>
<path d="M0 0 C2 2 2 2 2.1171875 4.3125 C2.03726563 5.199375 1.95734375 6.08625 1.875 7 C1.81054688 7.886875 1.74609375 8.77375 1.6796875 9.6875 C1 12 1 12 -1.0546875 13.3125 C-2.01761719 13.6528125 -2.01761719 13.6528125 -3 14 C-2.68872484 12.41642541 -2.37592711 10.83315007 -2.0625 9.25 C-1.80146484 7.92742187 -1.80146484 7.92742187 -1.53515625 6.578125 C-1.07631512 4.36764947 -0.56663926 2.18487932 0 0 Z " fill="#4D4A50" transform="translate(221,115)"/>
<path d="M0 0 C2.5 1.3125 2.5 1.3125 5 3 C5 3.99 5 4.98 5 6 C1.7 5.34 -1.6 4.68 -5 4 C-2 2 -2 2 0 2 C0 1.34 0 0.68 0 0 Z " fill="#403943" transform="translate(139,191)"/>
<path d="M0 0 C0.99 0.33 1.98 0.66 3 1 C3 1.66 3 2.32 3 3 C3.66 3 4.32 3 5 3 C5.66 4.32 6.32 5.64 7 7 C3.7 6.67 0.4 6.34 -3 6 C-3 5.34 -3 4.68 -3 4 C-1.35 4 0.3 4 2 4 C2 3.34 2 2.68 2 2 C1.34 2 0.68 2 0 2 C0 1.34 0 0.68 0 0 Z " fill="#524E54" transform="translate(131,183)"/>
<path d="M0 0 C2 2 2 2 2.125 5.125 C2.08375 6.07375 2.0425 7.0225 2 8 C-1.63 7.34 -5.26 6.68 -9 6 C-9 5.67 -9 5.34 -9 5 C-6.03 5 -3.06 5 0 5 C-0.33 4.01 -0.66 3.02 -1 2 C-0.67 1.34 -0.34 0.68 0 0 Z " fill="#74687B" transform="translate(178,109)"/>
<path d="M0 0 C0.99 0 1.98 0 3 0 C3 0.66 3 1.32 3 2 C1.50390625 3.4375 1.50390625 3.4375 -0.4375 5 C-3.15188238 7.14525044 -3.15188238 7.14525044 -5 10 C-5.99 10 -6.98 10 -8 10 C-8 9.34 -8 8.68 -8 8 C-6.50390625 6.5625 -6.50390625 6.5625 -4.5625 5 C-1.84811762 2.85474956 -1.84811762 2.85474956 0 0 Z " fill="#594566" transform="translate(142,30)"/>
<path d="M0 0 C0 0.99 0 1.98 0 3 C-1.98 3.33 -3.96 3.66 -6 4 C-6.66 2.68 -7.32 1.36 -8 0 C-4.94736336 -0.98120464 -3.05263664 -0.98120464 0 0 Z " fill="#646266" transform="translate(139,190)"/>
<path d="M0 0 C0.66 0.66 1.32 1.32 2 2 C1.09972412 3.03531726 0.17906965 4.05294165 -0.75 5.0625 C-1.51570313 5.91521484 -1.51570313 5.91521484 -2.296875 6.78515625 C-4 8 -4 8 -6.203125 7.68359375 C-6.79609375 7.45800781 -7.3890625 7.23242188 -8 7 C-7.01 6.67 -6.02 6.34 -5 6 C-5 5.34 -5 4.68 -5 4 C-4.34 4 -3.68 4 -3 4 C-3 3.34 -3 2.68 -3 2 C-2.01 1.34 -1.02 0.68 0 0 Z " fill="#CEC0DC" transform="translate(103,48)"/>
<path d="M0 0 C0.33 0 0.66 0 1 0 C0.52060632 4.71403788 0.03165952 8.66579301 -2 13 C-2.33 13 -2.66 13 -3 13 C-2.88610125 11.20759337 -2.75852313 9.41605165 -2.625 7.625 C-2.55539063 6.62726563 -2.48578125 5.62953125 -2.4140625 4.6015625 C-2 2 -2 2 0 0 Z " fill="#3C3343" transform="translate(209,121)"/>
<path d="M0 0 C0.66 0.33 1.32 0.66 2 1 C1.67 1.66 1.34 2.32 1 3 C2.65 3 4.3 3 6 3 C3.03312999 4.64826111 0.34373475 5.44271087 -3 6 C-3 5.01 -3 4.02 -3 3 C-2.01 2.67 -1.02 2.34 0 2 C0 1.34 0 0.68 0 0 Z " fill="#302935" transform="translate(149,191)"/>
<path d="M0 0 C2 3 2 3 3 5.5625 C3.86842753 8.12563162 3.86842753 8.12563162 6 10 C5.34 10 4.68 10 4 10 C3.67 10.99 3.34 11.98 3 13 C2.49242138 11.58603098 1.99425075 10.16868271 1.5 8.75 C1.08234375 7.56664063 1.08234375 7.56664063 0.65625 6.359375 C0 4 0 4 0 0 Z " fill="#43384D" transform="translate(206,96)"/>
<path d="M0 0 C0.33 0.66 0.66 1.32 1 2 C0.67 2.99 0.34 3.98 0 5 C0.66 5.33 1.32 5.66 2 6 C-2.75 7 -2.75 7 -5 7 C-4.67 6.01 -4.34 5.02 -4 4 C-3.34 4 -2.68 4 -2 4 C-1.34 2.68 -0.68 1.36 0 0 Z " fill="#403A44" transform="translate(156,184)"/>
<path d="M0 0 C0.99 0.33 1.98 0.66 3 1 C1.02 2.98 -0.96 4.96 -3 7 C-3.99 6.67 -4.98 6.34 -6 6 C-4.02 4.02 -2.04 2.04 0 0 Z " fill="#D8C7DE" transform="translate(110,41)"/>
<path d="M0 0 C0.99 0.33 1.98 0.66 3 1 C3 1.66 3 2.32 3 3 C3.66 3 4.32 3 5 3 C5 3.66 5 4.32 5 5 C4.01 5.33 3.02 5.66 2 6 C1.01 5.34 0.02 4.68 -1 4 C-0.67 2.68 -0.34 1.36 0 0 Z " fill="#646266" transform="translate(128,182)"/>
<path d="M0 0 C0.66 0 1.32 0 2 0 C2.99 1.98 3.98 3.96 5 6 C3.02 6.99 3.02 6.99 1 8 C1 6.02 1 4.04 1 2 C0.34 1.67 -0.32 1.34 -1 1 C-0.67 0.67 -0.34 0.34 0 0 Z " fill="#7D7284" transform="translate(144,150)"/>
<path d="M0 0 C0.33 0 0.66 0 1 0 C1.17835515 4.54805635 0.99785435 7.8794254 -1 12 C-1.33 12 -1.66 12 -2 12 C-2.28571429 3.42857143 -2.28571429 3.42857143 0 0 Z " fill="#666269" transform="translate(69,119)"/>
<path d="M0 0 C-1.33333333 2.66666667 -2.66666667 5.33333333 -4 8 C-4.66 8 -5.32 8 -6 8 C-5.62403791 5.21788056 -5.32681541 3.4120716 -3.5625 1.1875 C-2 0 -2 0 0 0 Z " fill="#CBBAD0" transform="translate(119,81)"/>
<path d="M0 0 C0.66 0.33 1.32 0.66 2 1 C1 4 1 4 -2 6 C-2.66 6.99 -3.32 7.98 -4 9 C-3.46930939 5.17902761 -2.50298434 2.93828597 0 0 Z " fill="#B9A8C3" transform="translate(109,136)"/>
<path d="M0 0 C0.99 0.99 1.98 1.98 3 3 C2.34 4.32 1.68 5.64 1 7 C1 6.34 1 5.68 1 5 C-0.32 4.67 -1.64 4.34 -3 4 C-2.01 2.68 -1.02 1.36 0 0 Z " fill="#99989B" transform="translate(176,121)"/>
<path d="M0 0 C2.97 0.495 2.97 0.495 6 1 C6 1.99 6 2.98 6 4 C4.02 4.99 4.02 4.99 2 6 C2 4.35 2 2.7 2 1 C1.34 0.67 0.68 0.34 0 0 Z " fill="#99909F" transform="translate(143,69)"/>
<path d="M0 0 C0.66 0 1.32 0 2 0 C1.34 1.98 0.68 3.96 0 6 C0.99 6.33 1.98 6.66 3 7 C1.68 7.33 0.36 7.66 -1 8 C-1.04241723 5.66705225 -1.04092937 3.33297433 -1 1 C-0.67 0.67 -0.34 0.34 0 0 Z " fill="#877F8F" transform="translate(151,134)"/>
<path d="M0 0 C0.33 0 0.66 0 1 0 C1.66 2.97 2.32 5.94 3 9 C2.01 9.495 2.01 9.495 1 10 C-0.80411967 7.24075815 -1.0127245 6.11027897 -0.625 2.75 C-0.41875 1.8425 -0.2125 0.935 0 0 Z " fill="#49404E" transform="translate(70,120)"/>
</svg>
